# xmcd
#
# Track frame offsets:
#	150
#	13457
#	36707
#	42032
#	69857
#	73232
#	94509
#	97832
#	123893
#	126332
#	179882
#	193607
#	227807
#	242132
#	274382
#	277082
#	300182
#	303107
#
# Disc length: 4624 seconds
# Revision: 1
# Processed by: cddbd v1.5.2PL0 Copyright (c) Steve Scherf et al.
# Submitted via: dBpowerAMP V12.0
#
DISCID=05120e12
DTITLE=Ben Rice Trio - Live @ The Purple Fox Loft
DYEAR=2015
DGENRE=Blues
TTITLE0=Shake a Hand
TTITLE1=Ida Mae
TTITLE2=Introduction To Can't Be Satisfied
TTITLE3=Can't Be Satisfied
TTITLE4=Introduction To Turn My Back On You
TTITLE5=Turn My Back On You
TTITLE6=Introduction To Fishing
TTITLE7=Fishing
TTITLE8=Introduction To I Saw The Devil
TTITLE9=I Saw the Devil
TTITLE10=Somewhere Over the Rainbow
TTITLE11=Key to the Highway
TTITLE12=In the Doghouse
TTITLE13=You're  Gonna Go Away
TTITLE14=Introduction To Fallen Angel
TTITLE15=Fallen Angel
TTITLE16=Introduction To I Got Loaded
TTITLE17=I Got Loaded
EXTD=
EXTT0=
EXTT1=
EXTT2=
EXTT3=
EXTT4=
EXTT5=
EXTT6=
EXTT7=
EXTT8=
EXTT9=
EXTT10=
EXTT11=
EXTT12=
EXTT13=
EXTT14=
EXTT15=
EXTT16=
EXTT17=
PLAYORDER=
